<?xml version="1.0" encoding="UTF-8" standalone="no"?>
<!-- Uploaded to: SVG Repo, www.svgrepo.com, Generator: SVG Repo Mixer Tools -->

<svg
   width="100.00002"
   height="132.89874"
   viewBox="0 0 4.0000008 5.3159498"
   version="1.1"
   id="svg78"
   sodipodi:docname="goleto.svg"
   inkscape:version="1.1.2 (0a00cf5339, 2022-02-04)"
   inkscape:export-filename="/home/gabriel.araujo/Downloads/goleto-2.png"
   inkscape:export-xdpi="96"
   inkscape:export-ydpi="96"
   xmlns:inkscape="http://www.inkscape.org/namespaces/inkscape"
   xmlns:sodipodi="http://sodipodi.sourceforge.net/DTD/sodipodi-0.dtd"
   xmlns="http://www.w3.org/2000/svg"
   xmlns:svg="http://www.w3.org/2000/svg"
   xmlns:rdf="http://www.w3.org/1999/02/22-rdf-syntax-ns#"
   xmlns:cc="http://creativecommons.org/ns#"
   xmlns:dc="http://purl.org/dc/elements/1.1/">
  <defs
     id="defs82">
    <clipPath
       clipPathUnits="userSpaceOnUse"
       id="clipPath16782">
      <path
         d="m -26.298964,55.157886 c 4.005129,0 7.759781,0.713572 9.716805,5.505379 1.75714,5.369911 1.13221,11.161981 1.400403,16.837484 0.230232,4.873717 0.740055,10.503539 -1.07529,15.021259 -1.910212,4.750851 -6.683234,5.94644 -10.616251,5.771591 -3.089243,-0.137043 -6.819861,-1.392491 -8.563093,-4.906798 -2.045577,-4.12234 -1.076547,-10.25308 -0.928541,-14.840109 0.175845,-5.432919 -1.18155,-10.884741 0.25301,-16.201096 1.48769,-5.513256 5.497884,-6.762402 9.814214,-7.18771"
         style="fill:#6ad7e5;fill-rule:evenodd;stroke-width:1.41164"
         id="path16784" />
    </clipPath>
  </defs>
  <sodipodi:namedview
     id="namedview80"
     pagecolor="#ffffff"
     bordercolor="#666666"
     borderopacity="1.0"
     inkscape:pageshadow="2"
     inkscape:pageopacity="0.0"
     inkscape:pagecheckerboard="0"
     showgrid="false"
     inkscape:zoom="1.124879"
     inkscape:cx="300.92124"
     inkscape:cy="353.37132"
     inkscape:window-width="1920"
     inkscape:window-height="1016"
     inkscape:window-x="0"
     inkscape:window-y="0"
     inkscape:window-maximized="1"
     inkscape:current-layer="svg78"
     fit-margin-top="0"
     fit-margin-left="0"
     fit-margin-right="0"
     fit-margin-bottom="0" />
  <title
     id="title2">file_type_go</title>
  <metadata
     id="metadata899">
    <rdf:RDF>
      <cc:Work
         rdf:about="">
        <dc:title>file_type_go</dc:title>
      </cc:Work>
    </rdf:RDF>
  </metadata>
  <path
     d="m 0.05386505,2.8763074 c 0.0077797,0.1568205 0.16820618,0.084296 0.24093273,0.035313 0.0690321,-0.046514 0.0892559,-0.00778 0.0952843,-0.099674 a 1.5434135,1.5068813 0 0 0 0.007591,-0.1813117 0.45542075,0.44464104 0 0 0 -0.30335546,0.075942 C 0.05017568,2.7379029 -0.03227379,2.8375769 0.0538719,2.8774466"
     style="fill:#f6d2a2;fill-rule:evenodd;stroke-width:0.192143"
     id="path4" />
  <path
     d="M 0.13728613,2.9868032 A 0.10247939,0.10005373 0 0 1 0.09139442,2.9771197 0.1052018,0.1027117 0 0 1 0.03889168,2.8856094 0.06961598,0.06796819 0 0 1 0,2.8318804 0.1956248,0.1909944 0 0 1 0.08400542,2.6938556 a 0.46669932,0.45565265 0 0 1 0.313661,-0.07841 l 0.0132289,0.00113 v 0.01291 a 1.1019938,1.0759098 0 0 1 -0.004472,0.141822 c -0.0012,0.01386 -0.002142,0.027529 -0.003102,0.041388 -0.004284,0.06512 -0.0167247,0.074993 -0.0511422,0.086574 a 0.18959661,0.1851089 0 0 0 -0.0507549,0.024491 0.34769098,0.33946124 0 0 1 -0.16412269,0.063032 z M 0.35313531,2.6435449 A 0.42780771,0.4176816 0 0 0 0.10306227,2.7183478 C 0.0715596,2.7407508 0.02780646,2.7931507 0.03150096,2.8292233 a 0.04258631,0.0415783 0 0 0 0.02858614,0.033604 l 0.0083623,0.0038 v 0.00892 c 0.0019364,0.03911 0.01400004,0.064171 0.03597343,0.074803 0.0423925,0.020504 0.12134287,-0.011011 0.18104099,-0.051071 a 0.21915422,0.2139669 0 0 1 0.0583375,-0.028099 c 0.0225577,-0.00759 0.0272238,-0.0093 0.0305294,-0.060374 0,-0.01386 0.001953,-0.027719 0.003119,-0.041768 a 1.1955281,1.1672302 0 0 0 0.005055,-0.1249246 q -0.014977,-5.649e-4 -0.0291689,-5.649e-4 z"
     id="path6"
     style="stroke-width:0.192143" />
  <path
     d="M 0.05386505,2.8763074 A 0.12639773,0.12340593 0 0 0 0.11784029,2.8411842"
     style="fill:#c6b198;fill-rule:evenodd;stroke-width:0.192143"
     id="path8" />
  <path
     d="M 0.05386505,2.8913059 A 0.01536219,0.01499857 0 0 1 0.04862146,2.862448 l 0.01029868,-0.00361 a 0.09197866,0.08980154 0 0 0 0.04686503,-0.02639 0.01536219,0.01499857 0 1 1 0.0245009,0.017846 0.1195917,0.11676099 0 0 1 -0.06106042,0.036642 l -0.0099217,0.00342 a 0.01516773,0.01480871 0 0 1 -0.0054492,9.425e-4 z"
     id="path10"
     style="stroke-width:0.192143" />
  <path
     d="M 0.42469662,1.0079416 C -0.19037526,0.8391603 0.26698961,0.07594211 0.76071999,0.38958303 Z"
     style="fill:#6ad7e5;fill-rule:evenodd;stroke-width:0.192143"
     id="path12" />
  <path
     d="m 0.43247461,1.0252185 -0.0118581,-0.00323 A 0.37472067,0.36585112 0 0 1 0.11687382,0.737208 0.40719515,0.39755694 0 0 1 0.30685976,0.36148442 0.41147324,0.40173377 0 0 1 0.7692811,0.37686271 l 0.0116696,0.007404 z M 0.51978554,0.32920904 A 0.3601363,0.35161197 0 0 0 0.32338392,0.38616563 0.3758874,0.36699024 0 0 0 0.14700905,0.73227178 0.34127387,0.333196 0 0 0 0.41691691,0.9902851 L 0.74068982,0.39470912 A 0.42197396,0.41198595 0 0 0 0.51978554,0.32958875 Z"
     id="path14"
     style="stroke-width:0.192143" />
  <path
     d="M 3.1568321,0.33224672 C 3.6429764,-0.00151884 4.0834244,0.75163703 3.5177454,0.94111259 Z"
     style="fill:#6ad7e5;fill-rule:evenodd;stroke-width:0.192143"
     id="path16" />
  <path
     d="M 3.510939,0.95914883 3.1366083,0.32788006 3.1480894,0.3200959 A 0.40175034,0.392241 0 0 1 3.5943704,0.28345384 0.41263997,0.40287289 0 0 1 3.7973848,0.65651945 0.36577558,0.35711776 0 0 1 3.5226154,0.9551618 Z M 3.1772496,0.3366134 3.5247454,0.92269662 A 0.33291218,0.32503223 0 0 0 3.7670405,0.65348185 0.38133224,0.37230618 0 0 0 3.5789995,0.30908438 0.3611086,0.35256123 0 0 0 3.1772496,0.3366134 Z"
     id="path18"
     style="stroke-width:0.192143" />
  <path
     d="M 3.261644,4.806566 C 3.385319,4.881179 3.6116691,5.1071069 3.4257667,5.2166534 3.2476439,5.3759419 3.1478872,5.0417966 2.9913471,4.995472 A 0.43266915,0.42242798 0 0 1 3.261644,4.806566 Z"
     style="fill:#f6d2a2;fill-rule:evenodd;stroke-width:0.192143"
     id="path20" />
  <path
     d="M 3.331843,5.2743694 H 3.324453 C 3.2542584,5.2701934 3.1959209,5.2033634 3.1395283,5.1386227 A 0.39688888,0.3874946 0 0 0 2.9868781,5.0100908 l -0.020613,-0.00607 0.012835,-0.017086 A 0.45172604,0.4410338 0 0 1 3.2593135,4.7921384 h 0.00564 l 0.00487,0.00285 c 0.079146,0.047843 0.2424904,0.187577 0.2417124,0.3140205 A 0.14195438,0.13859435 0 0 1 3.4351074,5.2297548 0.15381632,0.15017552 0 0 1 3.3318498,5.2743709 Z M 3.0158498,4.9895863 a 0.48711741,0.47558745 0 0 1 0.147009,0.1304306 c 0.054643,0.062652 0.1063695,0.1218871 0.1635401,0.1253045 a 0.12173074,0.1188494 0 0 0 0.088867,-0.037971 l 0.00233,-0.00171 a 0.11239675,0.10973635 0 0 0 0.063004,-0.096067 c 0,-0.1010031 -0.1306751,-0.2278264 -0.2224585,-0.2847829 A 0.39961129,0.39015259 0 0 0 3.0158463,4.9886324 Z"
     id="path22"
     style="stroke-width:0.192143" />
  <path
     d="m 3.4257667,5.2316519 a 0.01536219,0.01499857 0 0 1 -0.013606,-0.00816 0.56742859,0.55399768 0 0 1 -0.023918,-0.056957 0.25454559,0.24852055 0 0 0 -0.055616,-0.098345 0.01536219,0.01499857 0 0 1 0.021197,-0.021454 0.2813808,0.27472059 0 0 1 0.063199,0.1095465 0.54564928,0.53273389 0 0 0 0.022556,0.053159 0.01536219,0.01499857 0 0 1 -0.0068,0.020125 0.01516773,0.01480871 0 0 1 -0.00699,0.00209 z"
     id="path24"
     style="stroke-width:0.192143" />
  <path
     d="M 1.0527949,5.0619213 C 0.90772904,5.0837546 0.82605754,5.211717 0.70510365,5.2766476 0.59115151,5.3430969 0.54739836,5.2553838 0.53728646,5.2375374 0.51939656,5.2295641 0.52095593,5.2449419 0.49333968,5.2185519 0.38697018,5.0548966 0.60320834,4.9362371 0.71560455,4.8549791 0.87214459,4.8240326 0.9703454,4.9565515 1.0527949,5.0619213 Z"
     style="fill:#f6d2a2;fill-rule:evenodd;stroke-width:0.192143"
     id="path26" />
  <path
     d="m 0.62790463,5.3159476 a 0.10403506,0.10157257 0 0 1 -0.0274192,-0.00342 0.12581436,0.12283636 0 0 1 -0.0738935,-0.062652 h -0.003496 c -0.0128348,0 -0.0223624,-0.00266 -0.0414192,-0.021454 l -0.002142,-0.00247 c -0.10170167,-0.1568205 0.071366,-0.2758598 0.18609608,-0.3546498 0.0143942,-0.00987 0.0280018,-0.018985 0.0402523,-0.028098 l 0.002725,-0.0019 h 0.003307 c 0.16120616,-0.031896 0.26310148,0.098345 0.34477469,0.2029553 l 0.02314,0.029428 -0.025474,0.0038 A 0.44005856,0.42964249 0 0 0 0.8394801,5.197859 0.78230474,0.76378777 0 0 1 0.71172155,5.2905083 0.16703946,0.16308568 0 0 1 0.62790977,5.315949 Z M 0.52542498,5.2198809 a 0.04141956,0.04043917 0 0 1 0.0178899,0.00399 l 0.004472,0.00209 0.00389,0.00665 a 0.09897915,0.09663633 0 0 0 0.0567816,0.051071 0.11667483,0.11391316 0 0 0 0.0886732,-0.018985 0.76013651,0.74214426 0 0 0 0.12309108,-0.08943 A 0.51123021,0.49912951 0 0 1 1.025571,5.0529997 C 0.94778768,4.9531357 0.85794748,4.845298 0.72182831,4.870169 0.70997021,4.878519 0.69713201,4.887446 0.68293661,4.896559 0.56626156,4.977058 0.42002877,5.0773013 0.50422954,5.2094405 c 0.0120637,0.011771 0.0149768,0.01158 0.0175009,0.01158 z"
     id="path28"
     style="stroke-width:0.192143" />
  <path
     d="m 0.53709282,5.2523461 h -0.001371 a 0.01536219,0.01499857 0 0 1 -0.0140001,-0.016137 0.23334966,0.22782633 0 0 1 0.0491972,-0.1085971 0.3601363,0.35161197 0 0 0 0.0320853,-0.0524 0.01536219,0.01499857 0 0 1 0.0280035,0.012151 0.38736043,0.3781917 0 0 1 -0.0346146,0.056957 0.20709783,0.20219586 0 0 0 -0.0439468,0.094927 0.01536219,0.01499857 0 0 1 -0.0153709,0.0131 z"
     id="path30"
     style="stroke-width:0.192143" />
  <path
     d="M 0.45036451,0.79739214 C 0.36927563,0.75543413 0.30977115,0.6986674 0.35935736,0.60753687 0.40525078,0.52267156 0.49061678,0.53159476 0.57170567,0.57374263 Z"
     style="fill-rule:evenodd;stroke-width:0.192143"
     id="path32" />
  <path
     d="M 3.3895979,0.71727322 C 3.4706868,0.67531521 3.5301912,0.61854848 3.4806033,0.52741795 3.4347116,0.44255264 3.3493456,0.45147584 3.268255,0.49362371 Z"
     style="fill-rule:evenodd;stroke-width:0.192143"
     id="path34" />
  <path
     d="M 3.9480815,2.8565625 C 3.9403015,3.0133829 3.7798753,2.9408585 3.707147,2.8918755 3.638115,2.8453605 3.617891,2.8840955 3.611863,2.7922015 a 1.5432191,1.5066914 0 0 1 -0.00759,-0.1813119 0.45542075,0.44464104 0 0 1 0.3033538,0.075942 c 0.044142,0.031326 0.1265916,0.131 0.040448,0.1708696"
     style="fill:#f6d2a2;fill-rule:evenodd;stroke-width:0.192143"
     id="path36" />
  <path
     d="M 3.8646587,2.9668683 A 0.34769098,0.33946124 0 0 1 3.6985911,2.9040262 0.18959661,0.1851089 0 0 0 3.6478379,2.8795349 c -0.034419,-0.011771 -0.046865,-0.021643 -0.051142,-0.086574 0,-0.01386 -0.00195,-0.027529 -0.00312,-0.041389 a 1.1037439,1.0776185 0 0 1 -0.00447,-0.1418218 v -0.01291 l 0.013229,-0.00113 a 0.46669932,0.45565265 0 0 1 0.313661,0.07841 0.1956248,0.1909944 0 0 1 0.084005,0.1380247 0.06961598,0.06796819 0 0 1 -0.038892,0.053729 0.1052018,0.1027117 0 0 1 -0.052504,0.09151 0.10247939,0.10005373 0 0 1 -0.043947,0.00949 z M 3.6190581,2.6251289 a 1.1955281,1.1672302 0 0 0 0.00506,0.1249248 c 0.0012,0.01386 0.00214,0.027719 0.0031,0.041768 0.00331,0.051071 0.00797,0.05259 0.030531,0.060374 a 0.21915422,0.2139669 0 0 1 0.058336,0.028099 c 0.059504,0.040249 0.1386501,0.071575 0.181041,0.051071 0.021973,-0.010633 0.03403,-0.035693 0.035975,-0.074803 v -0.00892 l 0.00836,-0.0038 a 0.04258631,0.0415783 0 0 0 0.028585,-0.033604 c 0.0035,-0.036072 -0.040059,-0.088473 -0.071561,-0.1108756 A 0.43403036,0.42375697 0 0 0 3.6190478,2.6245596 Z"
     id="path38"
     style="stroke-width:0.192143" />
  <path
     d="M 3.9480815,2.8565625 A 0.12639773,0.12340593 0 0 1 3.8841045,2.8214392"
     style="fill:#c6b198;fill-rule:evenodd;stroke-width:0.192143"
     id="path40" />
  <path
     d="m 3.9480815,2.8713712 a 0.01516773,0.01480871 0 0 1 -0.00524,0 l -0.00992,-0.00342 a 0.11939724,0.11657114 0 0 1 -0.061059,-0.036642 0.01536219,0.01499857 0 1 1 0.024501,-0.017846 0.09197866,0.08980154 0 0 0 0.046865,0.02639 l 0.010299,0.00361 a 0.01536219,0.01499857 0 0 1 -0.00524,0.028858 z"
     id="path42"
     style="stroke-width:0.192143" />
  <path
     d="m 1.9393302,0.01499857 c 0.6156542,0 1.1928056,0.08600444 1.4936318,0.66354417 C 3.7030635,1.3257594 3.6070013,2.0238572 3.6482269,2.7079058 3.6836177,3.2953179 3.7619854,3.9738607 3.4829372,4.5183657 3.1893064,5.0909691 2.4556149,5.2350694 1.851046,5.2139954 1.3761788,5.1974781 0.80272184,5.0461633 0.53475891,4.6225961 0.22031994,4.125745 0.36927563,3.3868282 0.39202699,2.8339696 0.41905719,2.1791589 0.21040338,1.5220698 0.43091867,0.88130818 0.65960093,0.21681472 1.2760331,0.06625949 1.9395239,0.01499857"
     style="fill:#6ad7e5;fill-rule:evenodd;stroke-width:0.192143"
     id="path44" />
  <path
     d="m 1.9562468,5.2305127 c -0.038892,0 -0.073894,0 -0.1055898,-0.0019 C 1.5589694,5.2183617 0.84414107,5.1395719 0.52192411,4.6301903 0.26776758,4.2284565 0.31307667,3.6731298 0.35293996,3.1831133 0.36305015,3.0598973 0.3723858,2.9433261 0.37705362,2.83321 A 5.7701537,5.6335754 0 0 0 0.34652427,2.1372006 3.1533318,3.0786932 0 0 1 0.41652792,0.87637177 1.1301902,1.1034388 0 0 1 1.0154591,0.20447396 2.5178428,2.4582461 0 0 1 1.9381633,0 h 0.0012 C 2.540433,0 3.1391689,0.08144791 3.4466062,0.67170796 v 0.00114 A 3.9898902,3.8954505 0 0 1 3.64962,2.146504 c 0.00103,0.1839698 0.00214,0.3743946 0.013229,0.5604528 0.00331,0.056957 0.0072,0.1139131 0.011087,0.1708698 0.035782,0.5393788 0.076227,1.1509027 -0.1779291,1.6466148 -0.3167713,0.619118 -1.116383,0.7060717 -1.539719,0.7060717 z M 1.9399163,0.02980728 C 1.2993722,0.0793595 0.67593832,0.21738428 0.44511749,0.88586471 a 3.1307746,3.0566699 0 0 0 -0.0686431,1.24886789 5.7925164,5.6554088 0 0 1 0.029945,0.6998066 c -0.004661,0.1108754 -0.014,0.2278264 -0.0241119,0.3512322 C 0.34341581,3.6712313 0.29791309,4.2214319 0.54681917,4.6148121 0.86145178,5.112043 1.5634453,5.1891244 1.8506604,5.1989967 2.2244085,5.2120971 3.129999,5.1710881 3.4681626,4.5115309 3.7186247,4.0230333 3.6783707,3.415876 3.6431752,2.8802944 3.6392854,2.8233378 3.635584,2.7652421 3.6320883,2.7094246 3.6208128,2.5226071 3.6198361,2.3318024 3.6188593,2.147453 A 3.9684999,3.8745665 0 0 0 3.4183777,0.68556739 C 3.1191057,0.10935664 2.5308707,0.02999713 1.9399128,0.02980728 Z"
     id="path46"
     style="stroke-width:0.192143" />
  <path
     d="M 2.0480319,0.82188347 C 2.1584832,1.4484059 3.2089459,1.2834216 3.058047,0.65101373 2.9219261,0.08372618 2.0112788,0.24073648 2.0480319,0.82188347"
     style="fill:#ffffff;fill-rule:evenodd;stroke-width:0.192143"
     id="path48" />
  <path
     d="M 2.547011,1.2312114 A 0.58823559,0.57431219 0 0 1 2.3548865,1.2004549 0.47525548,0.46400629 0 0 1 2.0334475,0.82416174 V 0.8226435 A 0.51959191,0.50729329 0 0 1 2.5032579,0.28839077 0.48264488,0.47122079 0 0 1 3.072436,0.64740708 0.449587,0.43894539 0 0 1 2.9415656,1.092238 0.59737512,0.5832354 0 0 1 2.547011,1.231212 Z M 2.0628099,0.82017478 A 0.44725352,0.43666712 0 0 0 2.3646095,1.1733056 0.58084619,0.5670977 0 0 0 2.9217325,1.0707837 0.42100168,0.41103667 0 0 0 3.0436562,0.65310214 0.45405954,0.44331207 0 0 0 2.5065634,0.3170583 0.49081212,0.47919472 0 0 0 2.0628099,0.82017478 Z"
     id="path50"
     style="stroke-width:0.192143" />
  <path
     d="M 0.79299892,0.9232662 C 0.93611983,1.4694799 1.8317938,1.3289869 1.7979589,0.78182401 1.7575113,0.12568419 0.65590643,0.25231765 0.79280529,0.9232662"
     style="fill:#ffffff;fill-rule:evenodd;stroke-width:0.192143"
     id="path52" />
  <path
     d="M 1.2707826,1.2836115 A 0.54953845,0.536531 0 0 1 1.0092371,1.2217187 0.46358799,0.45261497 0 0 1 0.77899888,0.92687344 v 0 A 0.46883835,0.45774106 0 0 1 0.9396207,0.45755121 0.60418116,0.58988033 0 0 1 1.5399125,0.38274823 0.45405954,0.44331207 0 0 1 1.8121543,0.78144431 0.49178441,0.48014398 0 0 1 1.3668449,1.2767767 0.62226576,0.60753687 0 0 1 1.2707826,1.2836115 Z M 0.80700068,0.92022851 A 0.46669932,0.45565265 0 0 0 1.3627614,1.2484883 0.46378245,0.45280482 0 0 0 1.7837635,0.78258344 0.4264465,0.41635261 0 0 0 1.5282447,0.40742942 0.57423462,0.56064261 0 0 0 0.9575106,0.47843529 0.44122531,0.43078162 0 0 0 0.80700068,0.92022851 Z"
     id="path54"
     style="stroke-width:0.192143" />
  <path
     d="m 2.1748189,1.5746597 a 1.4487125,1.4144218 0 0 1 0.0031,0.259912 c -0.021389,0.0393 -0.063199,0.043477 -0.099172,0.059425 a 0.14603799,0.14258131 0 0 1 -0.1118136,-0.085245 1.8901323,1.8453933 0 0 1 0.00797,-0.2940859 z"
     style="fill:#ffffff;fill-rule:evenodd;stroke-width:0.192143"
     id="path56" />
  <path
     d="m 2.0808952,1.9093744 h -0.00447 A 0.16101126,0.15720017 0 0 1 1.9529413,1.8144469 v -0.0019 -0.00209 a 1.0111819,0.98724742 0 0 1 0.00175,-0.2018161 c 0.00254,-0.030946 0.00506,-0.062842 0.00603,-0.094928 v -0.018985 l 0.2296556,0.068728 v 0.011011 c 0,0.02696 0.00233,0.054868 0.00466,0.084296 a 0.72843985,0.71119786 0 0 1 -0.00154,0.1782742 v 0.00228 l -0.0012,0.00209 a 0.1279534,0.12492477 0 0 1 -0.080506,0.056957 c -0.00913,0.00323 -0.017695,0.00607 -0.026057,0.00987 z M 1.9819164,1.8047642 a 0.13048135,0.12739289 0 0 0 0.094895,0.073664 c 0.00797,-0.00323 0.016142,-0.00607 0.023918,-0.00892 a 0.10209048,0.09967402 0 0 0 0.062615,-0.04006 0.716189,0.69923697 0 0 0 0,-0.1684016 c -0.00194,-0.02601 -0.00389,-0.050881 -0.00447,-0.075942 L 1.9887211,1.5342205 c -0.00137,0.02582 -0.00331,0.051451 -0.00524,0.075942 a 0.98201315,0.95876913 0 0 0 -0.00194,0.1946016 z"
     id="path58"
     style="stroke-width:0.192143" />
  <ellipse
     cx="1.0399595"
     cy="0.8342241"
     rx="0.15128836"
     ry="0.15985814"
     id="ellipse60"
     style="stroke-width:0.192143" />
  <ellipse
     cx="1.108799"
     cy="0.87029654"
     rx="0.035585821"
     ry="0.040629026"
     style="fill:#ffffff;stroke-width:0.192143"
     id="ellipse62" />
  <ellipse
     cx="2.3070502"
     cy="0.7943545"
     rx="0.14876041"
     ry="0.15985814"
     id="ellipse64"
     style="stroke-width:0.192143" />
  <ellipse
     cx="2.3747211"
     cy="0.83042699"
     rx="0.035002451"
     ry="0.040629026"
     style="fill:#ffffff;stroke-width:0.192143"
     id="ellipse66" />
  <path
     d="M 1.7425379,1.5657365 C 1.676616,1.7217976 1.779291,2.0341093 1.9583871,1.8038151 a 1.8901323,1.8453933 0 0 1 0.00797,-0.2940859 z"
     style="fill:#ffffff;fill-rule:evenodd;stroke-width:0.192143"
     id="path68" />
  <path
     d="M 1.8387955,1.9010208 A 0.08770058,0.08562473 0 0 1 1.794847,1.8892501 0.31113287,0.30376844 0 0 1 1.7285378,1.560231 l 0.00291,-0.00683 0.250073,-0.063032 v 0.018986 c -0.00103,0.032275 -0.0037,0.064551 -0.00622,0.094928 a 0.97229024,0.94927636 0 0 0 -0.00194,0.1957407 v 0.00607 l -0.0037,0.00494 C 1.9181348,1.8795673 1.8736037,1.901021 1.8387972,1.901021 Z M 1.7540104,1.578267 a 0.28351983,0.27680899 0 0 0 0.056005,0.2847828 c 0.046281,0.02582 0.097228,-0.018985 0.1324247,-0.063602 a 1.0401561,1.0155359 0 0 1 0.00254,-0.1957407 c 0.00194,-0.024491 0.00389,-0.049552 0.00524,-0.074423 z"
     id="path70"
     style="stroke-width:0.192143" />
  <path
     d="M 1.7650956,1.2650057 A 0.19445805,0.18985527 0 0 0 1.6054454,1.5308031 c 0.08459,0.149606 0.2736024,-0.01329 0.3914444,0.00209 0.1361191,0.00266 0.2465721,0.1399233 0.3552738,0.024871 C 2.4731175,1.4298001 2.3000499,1.3050651 2.164707,1.2494375 Z"
     style="fill:#f6d2a2;fill-rule:evenodd;stroke-width:0.192143"
     id="path72" />
  <path
     d="M 2.2553234,1.6187061 A 0.33582906,0.32788006 0 0 1 2.1306767,1.584722 0.37491513,0.36604097 0 0 0 1.9966944,1.5478901 h -0.00175 a 0.34010712,0.33205687 0 0 0 -0.1384548,0.028858 c -0.095478,0.032275 -0.2037924,0.068728 -0.2644621,-0.037971 a 0.18395731,0.17960309 0 0 1 0.00272,-0.1740974 0.21740411,0.21225819 0 0 1 0.1689842,-0.1139132 v 0 l 0.4038901,-0.016707 0.00312,0.00133 c 0.1005347,0.041388 0.2150695,0.1171407 0.2347107,0.2056133 A 0.16256693,0.15871901 0 0 1 2.2553354,1.6183273 Z M 1.9980567,1.5188422 a 0.39980575,0.39034244 0 0 1 0.1444815,0.03911 c 0.076423,0.031326 0.1361209,0.056007 0.1985419,-0.00949 A 0.11278567,0.11011606 0 0 0 2.375693,1.4482161 C 2.3587798,1.3722739 2.2508509,1.3022173 2.1617887,1.2651955 l -0.3959151,0.015378 a 0.18920769,0.18472918 0 0 0 -0.1442879,0.098155 0.15401078,0.15036538 0 0 0 -0.00291,0.145619 c 0.048226,0.085245 0.1361209,0.055817 0.227517,0.024681 A 0.36091414,0.35237139 0 0 1 1.998065,1.5188415 Z"
     style="fill:#231f20;stroke-width:0.192143"
     id="path74" />
  <path
     d="M 1.7497333,1.2587405 C 1.7405998,1.0508489 2.1468171,1.0252185 2.19543,1.198936 2.2440446,1.3726536 1.7703461,1.4130929 1.7503159,1.2589303 Z"
     style="fill-rule:evenodd;stroke-width:0.192143"
     id="path76" />
  <g
     id="g1248"
     transform="matrix(0.15371634,0,0,0.12052651,5.9819111,-6.6329887)"
     clip-path="url(#clipPath16782)">
    <path
       id="barcode_bar1"
       style="stroke-width:0.498716"
       d="m -96.689003,72.842834 h 1 v 19.89745 h -1 z" />
    <path
       id="barcode_bar3"
       style="stroke-width:0.498716"
       d="m -93.689003,72.842834 h 1 v 19.89745 h -1 z" />
    <path
       id="barcode_bar5"
       style="stroke-width:0.498716"
       d="m -91.689003,72.842834 h 2 v 19.89745 h -2 z" />
    <path
       id="barcode_bar7"
       style="stroke-width:0.498716"
       d="m -88.689003,72.842834 h 2 v 19.89745 h -2 z" />
    <path
       id="barcode_bar9"
       style="stroke-width:0.498716"
       d="m -85.689003,72.842834 h 1 v 19.89745 h -1 z" />
    <path
       id="barcode_bar11"
       style="stroke-width:0.498716"
       d="m -83.689003,72.842834 h 1 v 19.89745 h -1 z" />
    <path
       id="barcode_bar13"
       style="stroke-width:0.498716"
       d="m -81.689003,72.842834 h 1 v 19.89745 h -1 z" />
    <path
       id="barcode_bar15"
       style="stroke-width:0.498716"
       d="m -79.689003,72.842834 h 1 v 19.89745 h -1 z" />
    <path
       id="barcode_bar17"
       style="stroke-width:0.498716"
       d="m -76.689003,72.842834 h 2 v 19.89745 h -2 z" />
    <path
       id="barcode_bar19"
       style="stroke-width:0.498716"
       d="m -73.689003,72.842834 h 2 v 19.89745 h -2 z" />
    <path
       id="barcode_bar21"
       style="stroke-width:0.498716"
       d="m -70.689003,72.842834 h 2 v 19.89745 h -2 z" />
    <path
       id="barcode_bar23"
       style="stroke-width:0.498716"
       d="m -67.689003,72.842834 h 1 v 19.89745 h -1 z" />
    <path
       id="barcode_bar25"
       style="stroke-width:0.498716"
       d="m -65.689003,72.842834 h 2 v 19.89745 h -2 z" />
    <path
       id="barcode_bar27"
       style="stroke-width:0.498716"
       d="m -62.688999,72.842834 h 1 v 19.89745 h -1 z" />
    <path
       id="barcode_bar29"
       style="stroke-width:0.498716"
       d="m -59.688999,72.842834 h 1 v 19.89745 h -1 z" />
    <path
       id="barcode_bar31"
       style="stroke-width:0.498716"
       d="m -57.688999,72.842834 h 1 v 19.89745 h -1 z" />
    <path
       id="barcode_bar33"
       style="stroke-width:0.498716"
       d="m -55.688999,72.842834 h 2 v 19.89745 h -2 z" />
    <path
       id="barcode_bar35"
       style="stroke-width:0.498716"
       d="m -52.688999,72.842834 h 1 v 19.89745 h -1 z" />
    <path
       id="barcode_bar37"
       style="stroke-width:0.498716"
       d="m -50.688999,72.842834 h 1 v 19.89745 h -1 z" />
    <path
       id="barcode_bar39"
       style="stroke-width:0.498716"
       d="m -47.688999,72.842834 h 2 v 19.89745 h -2 z" />
    <path
       id="barcode_bar41"
       style="stroke-width:0.498716"
       d="m -44.688999,72.842834 h 2 v 19.89745 h -2 z" />
    <path
       id="barcode_bar43"
       style="stroke-width:0.498716"
       d="m -41.688999,72.842834 h 1 v 19.89745 h -1 z" />
    <path
       id="barcode_bar45"
       style="stroke-width:0.498716"
       d="m -39.688999,72.842834 h 2 v 19.89745 h -2 z" />
    <path
       id="barcode_bar47"
       style="stroke-width:0.403084"
       d="m -35.689274,74.350144 h 1 v 12.998121 h -1 z" />
    <path
       id="barcode_bar49"
       style="stroke-width:0.403084"
       d="m -33.688999,74.350174 h 1 v 12.998121 h -1 z" />
    <path
       id="barcode_bar51"
       style="stroke-width:0.403084"
       d="m -31.688999,74.350174 h 1 v 12.998121 h -1 z" />
    <path
       id="barcode_bar53"
       style="stroke-width:0.403084"
       d="m -29.688999,74.350174 h 1 v 12.998121 h -1 z" />
    <path
       id="barcode_bar55"
       style="stroke-width:0.403084"
       d="m -27.688999,74.350174 h 2 v 12.998121 h -2 z" />
    <path
       id="barcode_bar57"
       style="stroke-width:0.403084"
       d="m -24.688999,74.350174 h 2 v 12.998121 h -2 z" />
    <path
       id="barcode_bar59"
       style="stroke-width:0.403084"
       d="m -20.688999,74.350174 h 1 v 12.998121 h -1 z" />
    <path
       id="barcode_bar61"
       style="stroke-width:0.403084"
       d="m -18.688999,74.350174 h 2 v 12.998121 h -2 z" />
    <path
       id="barcode_bar63"
       style="stroke-width:0.403084"
       d="m -15.689,74.350174 h 1 v 12.998121 h -1 z" />
    <path
       id="barcode_bar65"
       style="stroke-width:0.498716"
       d="m -13.689,72.842834 h 2 v 19.89745 h -2 z" />
    <path
       id="barcode_bar67"
       style="stroke-width:0.498716"
       d="m -10.689,72.842834 h 0.9999999 v 19.89745 H -10.689 Z" />
    <path
       id="barcode_bar69"
       style="stroke-width:0.498716"
       d="m -7.6890001,72.842834 h 1 v 19.89745 h -1 z" />
    <path
       id="barcode_bar71"
       style="stroke-width:0.498716"
       d="m -5.6890001,72.842834 h 1 v 19.89745 h -1 z" />
    <path
       id="barcode_bar73"
       style="stroke-width:0.498716"
       d="m -2.6889999,72.842834 h 1 v 19.89745 h -1 z" />
    <path
       id="barcode_bar75"
       style="stroke-width:0.498716"
       d="M -0.68900001,72.842834 H 1.311 v 19.89745 h -2.00000001 z" />
    <path
       id="barcode_bar77"
       style="stroke-width:0.498716"
       d="m 2.3110001,72.842834 h 2 v 19.89745 h -2 z" />
    <path
       id="barcode_bar79"
       style="stroke-width:0.498716"
       d="m 5.3109999,72.842834 h 1 v 19.89745 h -1 z" />
  </g>
</svg>
